<svg width="54" height="54" viewBox="0 0 54 54" fill="none" xmlns="http://www.w3.org/2000/svg">
<path d="M51.1582 16.8488C49.8436 13.708 47.9311 10.8533 45.5274 8.4436C43.1308 6.02978 40.2839 4.11065 37.1485 2.79515C33.9364 1.44098 30.4853 0.746838 27 0.753961H26.8828C23.3379 0.771557 19.9102 1.47541 16.6817 2.85967C13.5731 4.18866 10.753 6.11121 8.37894 8.51985C5.99845 10.9241 4.10787 13.7689 2.81253 16.8958C1.46791 20.1474 0.786574 23.6354 0.808624 27.1545C0.826202 31.2251 1.79886 35.2664 3.61526 38.8796V47.7951C3.61526 49.2849 4.8223 50.4932 6.30472 50.4932H15.1992C18.8254 52.325 22.827 53.2887 26.8887 53.3086H27.0117C30.5157 53.3086 33.9082 52.6283 37.1075 51.2968C40.2271 49.997 43.0633 48.1002 45.4571 45.7129C47.8711 43.3139 49.7696 40.5102 51.0996 37.3839C52.4766 34.1461 53.1797 30.7031 53.1973 27.1486C53.209 23.5765 52.5176 20.11 51.1582 16.8488ZM15.3047 29.8467C13.7578 29.8467 12.4981 28.5857 12.4981 27.0313C12.4981 25.477 13.7578 24.2159 15.3047 24.2159C16.8516 24.2159 18.1114 25.477 18.1114 27.0313C18.1114 28.5857 16.8575 29.8467 15.3047 29.8467ZM27 29.8467C25.4532 29.8467 24.1934 28.5857 24.1934 27.0313C24.1934 25.477 25.4532 24.2159 27 24.2159C28.5469 24.2159 29.8067 25.477 29.8067 27.0313C29.8067 28.5857 28.5469 29.8467 27 29.8467ZM38.6953 29.8467C37.1485 29.8467 35.8887 28.5857 35.8887 27.0313C35.8887 25.477 37.1485 24.2159 38.6953 24.2159C40.2422 24.2159 41.502 25.477 41.502 27.0313C41.502 28.5857 40.2422 29.8467 38.6953 29.8467Z" fill="white"/>
</svg>
