<svg width="50" height="57" viewBox="0 0 50 57" fill="none" xmlns="http://www.w3.org/2000/svg">
<path d="M0 25.5287C0 11.7068 11.1925 0.502686 25 0.502686C38.8075 0.502686 50 11.7068 50 25.5287V38.4271C50 42.5464 46.45 45.5496 42.5 45.5496H35V25.5287H45C45 20.2189 42.8929 15.1265 39.1421 11.3719C35.3914 7.61723 30.3043 5.50789 25 5.50789C19.6957 5.50789 14.6086 7.61723 10.8579 11.3719C7.10714 15.1265 5 20.2189 5 25.5287H15V45.5496H10.1575C10.4347 46.6242 11.0608 47.5761 11.9374 48.2556C12.814 48.9351 13.8913 49.3037 15 49.3035H18.91C19.7 48.1698 21.0125 47.4265 22.5 47.4265H27.5C28.6603 47.4265 29.7731 47.8879 30.5936 48.7093C31.4141 49.5306 31.875 50.6445 31.875 51.8061C31.875 52.9676 31.4141 54.0816 30.5936 54.9029C29.7731 55.7242 28.6603 56.1856 27.5 56.1856H22.5C21.0125 56.1856 19.7 55.4424 18.91 54.3087H15C12.4948 54.309 10.0807 53.3679 8.23537 51.6718C6.39006 49.9756 5.24794 47.6479 5.035 45.1491C2.185 44.2057 0 41.6605 0 38.4296V25.5287Z" fill="white"/>
</svg>
