<?xml version="1.0" encoding="utf-8"?>
<!-- Generator: Adobe Illustrator 15.0.0, SVG Export Plug-In . SVG Version: 6.00 Build 0)  -->
<!DOCTYPE svg PUBLIC "-//W3C//DTD SVG 1.1//EN" "http://www.w3.org/Graphics/SVG/1.1/DTD/svg11.dtd">
<svg version="1.1" id="Capa_1" xmlns="http://www.w3.org/2000/svg" xmlns:xlink="http://www.w3.org/1999/xlink" x="0px" y="0px"
	 width="100px" height="72.131px" viewBox="0 0 100 72.131" enable-background="new 0 0 100 72.131" xml:space="preserve">
<g>
	<path fill="#939393" d="M37.108,58.553c5.542-6.922,20.408-5.917,26.311-0.012l7.462-7.833
		c-8.665-10.595-32.765-10.798-41.614-0.191c2.641,2.755,5.209,5.437,7.603,7.94C36.951,58.488,37.026,58.524,37.108,58.553z"/>
	<path fill="#939393" d="M56.626,0.425C56.626,0.283,47.291,0,42.624,0C24.392,2.669,10.303,9.481,0,20.079
		c1.718,1.783,4.356,4.521,7.544,7.834c8.691-8.064,19.558-13.951,33.807-16.457c5.605-0.613,11.758-0.48,17.396,0
		c12.893,1.858,23.276,8.458,31.236,13.892c0.035,0.024,0.07,0.048,0.105,0.072c0.016,0.011,1.669,1.277,2.635,2.359L100,20.144
		C88.986,10.239,75.122,1.353,56.626,0.425z"/>
	<path fill="#939393" d="M43.897,33.095c9.743-1.636,15.424,0.358,24.609,3.395c4.364,2.582,7.979,5.892,8.816,7.457l7.618-7.998
		c-1.665-1.683-9.046-6.859-11.688-8.475c-7.73-4.729-19.793-6.512-30.63-5.411c-11.673,2.065-20.467,7.01-27.781,13.436
		c2.478,2.576,5.082,5.286,7.709,8.022C28.315,38.693,35.034,34.821,43.897,33.095z"/>
	<path fill="#939393" d="M56.202,65.767c-2.104-2.772-10.081-3.039-12.24-0.086l6.271,6.45l5.827-6.094
		C56.107,65.947,56.157,65.859,56.202,65.767z"/>
</g>
</svg>
