<?xml version="1.0" encoding="utf-8"?>
<!-- Generator: Adobe Illustrator 15.0.0, SVG Export Plug-In . SVG Version: 6.00 Build 0)  -->
<!DOCTYPE svg PUBLIC "-//W3C//DTD SVG 1.1//EN" "http://www.w3.org/Graphics/SVG/1.1/DTD/svg11.dtd">
<svg version="1.1" id="Capa_1" xmlns="http://www.w3.org/2000/svg" xmlns:xlink="http://www.w3.org/1999/xlink" x="0px" y="0px"
	 width="24.488px" height="25px" viewBox="0 0 24.488 25" enable-background="new 0 0 24.488 25" xml:space="preserve">
<path fill-rule="evenodd" clip-rule="evenodd" fill="#929293" d="M8.439,0.106c0.594,0.327,0.064,1.777,0.352,2.412
	c1.554,0,3.419,0,5.174,0c0.379,0,1.732,0.105,1.809-0.101c0.234-0.641-0.25-1.805,0.1-2.261c0.936-0.271,3.416-0.126,3.441-0.051
	c0.594,0.327,0.064,1.777,0.352,2.412c0.461,0,1.002,0,1.582,0c0.525,0,1.684-0.034,1.684,0c-0.051-0.009-0.08,0.005-0.076,0.05
	c0.068,0.058,0.242,0.009,0.352,0.025c0-0.025,0-0.051,0-0.075c0.033,0,0.066,0,0.1,0c0,0.024,0,0.05,0,0.075
	c-0.215-0.006-0.043,0.166,0.102,0.101c0-0.034,0-0.067,0-0.101c0.025,0,0.051,0,0.074,0c0,0.033,0,0.066,0,0.101
	c-0.02,0.086,0.016,0.119,0.102,0.1c0-0.033,0-0.066,0-0.1c0.025,0,0.051,0,0.074,0c0,0.033,0,0.066,0,0.1
	C23.61,2.786,23.581,2.8,23.584,2.845c0.291,0.11,0.496,0.307,0.527,0.678c0.086,0.02,0.119-0.014,0.1-0.101
	c0.033,0,0.068,0,0.102,0c0,0.034,0,0.067,0,0.101c-0.24,0.08,0.129,0.333,0,0.628c0.084,0.025,0.082-0.034,0.074-0.101
	c0.035,0,0.068,0,0.102,0c0,6.438,0,12.877,0,19.315c-0.033,0-0.066,0-0.102,0c0.01-0.05-0.004-0.078-0.049-0.075
	c-0.02,0.087-0.096,0.446,0.049,0.452c0,0.025,0,0.051,0,0.075c-0.025,0-0.049,0-0.074,0c-0.033,0-0.068,0-0.102,0
	c-0.064,0.537-0.543,0.662-0.803,1.005c0,0.033,0,0.067,0,0.101c-0.033,0-0.066,0-0.102,0c0-0.033,0-0.067,0-0.101
	c-0.07,0.013-0.211-0.045-0.176,0.075c0.004,0.029,0.047,0.021,0.076,0.025c0.037,0.12-0.105,0.063-0.176,0.075
	c0-0.017,0-0.033,0-0.05c-7.117-0.009-14.542-0.109-21.575,0.05c-0.034,0-0.067,0-0.101,0c0-0.025,0-0.05,0-0.075
	c0-0.033,0-0.067,0-0.101c-0.071,0.013-0.213-0.045-0.176,0.075c0,0.009,0,0.017,0,0.025c-0.034,0-0.067,0-0.101,0
	c0-0.033,0-0.067,0-0.101c-0.025,0-0.051,0-0.075,0c-0.065,0.007-0.126,0.009-0.101-0.075c0.029-0.139-0.133-0.086-0.126-0.201
	c-0.075-0.025-0.044,0.056-0.05,0.101C0.598,24.593,0.505,24.5,0.452,24.37c0.22-0.108-0.316-0.271-0.176-0.628
	c-0.065-0.007-0.126-0.008-0.101,0.075c-0.033,0-0.067,0-0.101,0c0-0.024,0-0.05,0-0.075c0.017,0,0.033,0,0.05,0
	c0.113-0.023,0.058-0.651-0.05-0.377c-0.025,0-0.05,0-0.075,0c0-6.346,0-12.692,0-19.039c0.131,0.039,0.023-0.16,0.176-0.101
	C0.135,3.398,0.583,3.06,1.005,2.694c0-0.034,0-0.067,0-0.101c0.024,0,0.05,0,0.075,0c0.077,0.201,0.335-0.038,0.577-0.075
	c0.403-0.063,1.01,0,1.558,0c0.434,0,1.591,0.101,1.683-0.101c0.267-0.584-0.253-1.776,0.075-2.261
	C5.92-0.11,8.436,0.062,8.439,0.106z M0.729,24.496c-0.005-0.037-0.061-0.023-0.101-0.025C0.574,24.563,0.756,24.583,0.729,24.496z
	 M0.628,24.47c0-0.033,0-0.067,0-0.101c-0.025,0-0.051,0-0.075,0C0.546,24.435,0.544,24.496,0.628,24.47z M1.809,7.768
	c0,0.033,0,0.066,0,0.101c0,0.024,0,0.05,0,0.075c-0.018,0-0.034,0-0.051,0c-0.089,0.457-0.05,1.311-0.05,2.21
	c0,0.542-0.077,1.813,0.101,2.16c0,0.025,0,0.05,0,0.075c0,0.017,0,0.033,0,0.051c0.479,0.089,1.361,0.05,2.285,0.05
	c0.572,0,1.882,0.077,2.261-0.101c0-0.025,0-0.05,0-0.075c0.017,0,0.033,0,0.05,0c0.009-1.382,0.109-3.072-0.05-4.37
	c0-0.025,0-0.051,0-0.075c0-0.034,0-0.067,0-0.101c0-0.017,0-0.034,0-0.051C4.914,7.709,3.165,7.608,1.809,7.768z M7.259,7.768
	c0,0.033,0,0.066,0,0.101c0,0.024,0,0.05,0,0.075c-0.017,0-0.034,0-0.051,0c-0.089,0.457-0.05,1.311-0.05,2.21
	c0,0.542-0.077,1.813,0.101,2.16c0,0.025,0,0.05,0,0.075c0,0.017,0,0.033,0,0.051c0.482,0.089,1.351,0.05,2.285,0.05
	c0.559,0,1.874,0.077,2.235-0.101c0-0.025,0-0.05,0-0.075c0.025,0,0.051,0,0.075,0c0.025-1.39,0.075-3.022-0.024-4.37
	c-0.017,0-0.034,0-0.051,0c0-0.025,0-0.051,0-0.075c0-0.034,0-0.067,0-0.101c0-0.017,0-0.034,0-0.051
	C10.348,7.709,8.606,7.608,7.259,7.768z M12.684,7.768c0,0.033,0,0.066,0,0.101c0,0.024,0,0.05,0,0.075c-0.017,0-0.033,0-0.05,0
	c-0.009,1.382-0.108,3.072,0.05,4.37c0,0.025,0,0.05,0,0.075c0,0.017,0,0.033,0,0.051c0.48,0.089,1.362,0.05,2.286,0.05
	c0.572,0,1.883,0.077,2.26-0.101c0-0.025,0-0.05,0-0.075c0.025,0,0.051,0,0.076,0c0.025-1.39,0.074-3.022-0.025-4.37
	c-0.016,0-0.033,0-0.051,0c0-0.025,0-0.051,0-0.075c0-0.034,0-0.067,0-0.101c0-0.017,0-0.034,0-0.051
	C15.79,7.709,14.04,7.608,12.684,7.768z M18.133,7.768c0,0.033,0,0.066,0,0.101c0,0.024,0,0.05,0,0.075c-0.016,0-0.033,0-0.049,0
	c-0.09,0.457-0.051,1.311-0.051,2.21c0,0.542-0.078,1.813,0.1,2.16c0,0.025,0,0.05,0,0.075c0,0.017,0,0.033,0,0.051
	c0.48,0.089,1.361,0.05,2.287,0.05c0.572,0,1.881,0.077,2.26-0.101c0-0.025,0-0.05,0-0.075c0.016,0,0.033,0,0.051,0
	c0.008-1.382,0.107-3.072-0.051-4.37c0-0.025,0-0.051,0-0.075c0-0.034,0-0.067,0-0.101c0-0.017,0-0.034,0-0.051
	C21.241,7.709,19.491,7.608,18.133,7.768z M1.809,13.218c0,0.033,0,0.066,0,0.101c0,0.024,0,0.05,0,0.075c-0.018,0-0.034,0-0.051,0
	c-0.089,0.454-0.05,1.302-0.05,2.21c0,0.535-0.078,1.791,0.101,2.135c0,0.034,0,0.067,0,0.101c0,0.017,0,0.033,0,0.051
	c0.479,0.089,1.361,0.05,2.285,0.05c0.572,0,1.882,0.078,2.261-0.101c0-0.033,0-0.066,0-0.101c0.017,0,0.033,0,0.05,0
	c0.009-1.373,0.108-3.056-0.05-4.345c0-0.025,0-0.051,0-0.075c0-0.034,0-0.067,0-0.101c0-0.017,0-0.033,0-0.051
	c-0.48-0.089-1.361-0.05-2.286-0.05C3.496,13.117,2.187,13.04,1.809,13.218z M7.259,13.218c0,0.033,0,0.066,0,0.101
	c0,0.024,0,0.05,0,0.075c-0.017,0-0.034,0-0.051,0c-0.089,0.454-0.05,1.302-0.05,2.21c0,0.536-0.077,1.791,0.101,2.135
	c0,0.034,0,0.067,0,0.101c0,0.017,0,0.033,0,0.051c0.482,0.089,1.351,0.05,2.285,0.05c0.559,0,1.874,0.077,2.235-0.101
	c0-0.033,0-0.066,0-0.101c0.017,0,0.034,0,0.051,0c0.083-1.331,0.083-3.014,0-4.345c-0.017,0-0.034,0-0.051,0
	c0-0.025,0-0.051,0-0.075c0-0.034,0-0.067,0-0.101c0-0.017,0-0.033,0-0.051c-0.482-0.089-1.351-0.05-2.285-0.05
	C8.936,13.117,7.62,13.04,7.259,13.218z M12.684,13.218c0,0.033,0,0.066,0,0.101c0,0.024,0,0.05,0,0.075c-0.017,0-0.033,0-0.05,0
	c-0.009,1.374-0.108,3.056,0.05,4.345c0,0.034,0,0.067,0,0.101c0,0.017,0,0.033,0,0.051c0.48,0.089,1.362,0.05,2.286,0.05
	c0.572,0,1.883,0.078,2.26-0.101c0-0.033,0-0.066,0-0.101c0.018,0,0.035,0,0.051,0c0.084-1.331,0.084-3.014,0-4.345
	c-0.016,0-0.033,0-0.051,0c0-0.025,0-0.051,0-0.075c0-0.034,0-0.067,0-0.101c0-0.017,0-0.033,0-0.051
	c-0.479-0.089-1.361-0.05-2.285-0.05C14.372,13.117,13.063,13.04,12.684,13.218z M18.133,13.218c0,0.033,0,0.066,0,0.101
	c0,0.024,0,0.05,0,0.075c-0.016,0-0.033,0-0.049,0c-0.09,0.454-0.051,1.302-0.051,2.21c0,0.536-0.078,1.791,0.1,2.135
	c0,0.034,0,0.067,0,0.101c0,0.017,0,0.033,0,0.051c0.48,0.089,1.361,0.05,2.287,0.05c0.572,0,1.881,0.078,2.26-0.101
	c0-0.033,0-0.066,0-0.101c0.016,0,0.033,0,0.051,0c0.008-1.373,0.107-3.056-0.051-4.345c0-0.025,0-0.051,0-0.075
	c0-0.034,0-0.067,0-0.101c0-0.017,0-0.033,0-0.051c-0.48-0.089-1.361-0.05-2.285-0.05C19.823,13.117,18.512,13.04,18.133,13.218z
	 M1.809,18.668c0,0.025,0,0.05,0,0.075c0,0.033,0,0.067,0,0.101c-0.018,0-0.034,0-0.051,0c-0.089,0.453-0.05,1.302-0.05,2.21
	c0,0.535-0.078,1.791,0.101,2.135c0,0.034,0,0.067,0,0.101c0,0.017,0,0.034,0,0.051c1.439,0.008,3.189,0.108,4.546-0.051
	c0-0.033,0-0.066,0-0.101c0.017,0,0.033,0,0.05,0c0.009-1.373,0.108-3.055-0.05-4.345c0-0.033,0-0.067,0-0.101
	c0-0.025,0-0.05,0-0.075c0-0.017,0-0.033,0-0.05c-0.48-0.09-1.361-0.051-2.286-0.051C3.496,18.568,2.187,18.49,1.809,18.668z
	 M7.259,18.668c0,0.025,0,0.05,0,0.075c0,0.033,0,0.067,0,0.101c-0.017,0-0.034,0-0.051,0c-0.089,0.453-0.05,1.302-0.05,2.21
	c0,0.536-0.077,1.791,0.101,2.135c0,0.034,0,0.067,0,0.101c0,0.017,0,0.034,0,0.051c1.432,0.008,3.173,0.108,4.521-0.051
	c0-0.033,0-0.066,0-0.101c0.017,0,0.034,0,0.051,0c0.083-1.331,0.083-3.014,0-4.345c-0.017,0-0.034,0-0.051,0
	c0-0.033,0-0.067,0-0.101c0-0.025,0-0.05,0-0.075c0-0.017,0-0.033,0-0.05c-0.482-0.09-1.351-0.051-2.285-0.051
	C8.936,18.568,7.62,18.491,7.259,18.668z M12.684,18.668c0,0.025,0,0.05,0,0.075c0,0.033,0,0.067,0,0.101c-0.017,0-0.033,0-0.05,0
	c-0.009,1.373-0.108,3.056,0.05,4.345c0,0.034,0,0.067,0,0.101c0,0.017,0,0.034,0,0.051c1.44,0.008,3.19,0.108,4.545-0.051
	c0-0.033,0-0.066,0-0.101c0.018,0,0.035,0,0.051,0c0.084-1.331,0.084-3.014,0-4.345c-0.016,0-0.033,0-0.051,0
	c0-0.033,0-0.067,0-0.101c0-0.025,0-0.05,0-0.075c0-0.017,0-0.033,0-0.05c-0.479-0.09-1.361-0.051-2.285-0.051
	C14.372,18.568,13.063,18.49,12.684,18.668z M18.133,18.668c0,0.025,0,0.05,0,0.075c0,0.033,0,0.067,0,0.101
	c-0.016,0-0.033,0-0.049,0c-0.09,0.453-0.051,1.302-0.051,2.21c0,0.536-0.078,1.791,0.1,2.135c0,0.034,0,0.067,0,0.101
	c0,0.017,0,0.034,0,0.051c1.441,0.008,3.189,0.108,4.547-0.051c0-0.033,0-0.066,0-0.101c0.016,0,0.033,0,0.051,0
	c0.008-1.373,0.107-3.055-0.051-4.345c0-0.033,0-0.067,0-0.101c0-0.025,0-0.05,0-0.075c0-0.017,0-0.033,0-0.05
	c-0.48-0.09-1.361-0.051-2.285-0.051C19.823,18.568,18.512,18.49,18.133,18.668z"/>
</svg>
