<svg width="60" height="34" viewBox="0 0 60 34" fill="none" xmlns="http://www.w3.org/2000/svg">
<path d="M55 0.764404H22.5C19.75 0.764404 17.5 3.01675 17.5 5.76961V28.293C17.5 29.6205 18.0268 30.8936 18.9645 31.8323C19.9021 32.7709 21.1739 33.2983 22.5 33.2983H55C57.775 33.2983 60 31.0709 60 28.293V5.76961C60 4.44215 59.4732 3.16905 58.5355 2.2304C57.5979 1.29174 56.3261 0.764404 55 0.764404ZM55 28.293H22.5V9.94896L38.75 18.2826L55 9.94896V28.293ZM38.75 14.0532L22.5 5.76961H55L38.75 14.0532ZM12.5 28.293C12.5 28.7185 12.575 29.1189 12.625 29.5443H2.5C1.12 29.5443 0 28.4182 0 27.0417C0 25.6653 1.12 24.5391 2.5 24.5391H12.5V28.293ZM7.5 4.51831H12.625C12.575 4.94375 12.5 5.34417 12.5 5.76961V9.52352H7.5C6.125 9.52352 5 8.39735 5 7.02091C5 5.64448 6.125 4.51831 7.5 4.51831ZM2.5 17.0313C2.5 15.6549 3.625 14.5287 5 14.5287H12.5V19.5339H5C3.625 19.5339 2.5 18.4078 2.5 17.0313Z" fill="white"/>
</svg>
