<svg width="60" height="62" viewBox="0 0 60 62" fill="none" xmlns="http://www.w3.org/2000/svg">
<g clip-path="url(#clip0_15_17)">
<path d="M30 0.96875C13.4274 0.96875 0 14.4102 0 31C0 47.5898 13.4274 61.0312 30 61.0312C46.5726 61.0312 60 47.5898 60 31C60 14.4102 46.5726 0.96875 30 0.96875ZM13.5484 27.0523C13.9476 21.9543 17.4435 18.4062 20.3226 18.4062C23.2016 18.4062 26.6976 21.9543 27.0968 27.0523C27.1814 28.0938 25.7903 28.4934 25.2944 27.5973L24.1452 25.5387C23.2137 23.8797 21.8226 22.923 20.3347 22.923C18.8468 22.923 17.4556 23.8797 16.5242 25.5387L15.375 27.5973C14.8548 28.4934 13.4637 28.0816 13.5484 27.0523ZM43.8871 41.9227C40.4395 46.0641 35.3831 48.4375 30 48.4375C24.6169 48.4375 19.5605 46.0641 16.1129 41.9227C14.4798 39.9488 17.4435 37.4785 19.0887 39.4402C21.7984 42.6977 25.7661 44.5504 30 44.5504C34.2339 44.5504 38.2016 42.6855 40.9113 39.4402C42.5565 37.4785 45.5202 39.9609 43.8871 41.9227ZM44.6371 27.5973L43.4879 25.5387C42.5564 23.8797 41.1653 22.923 39.6774 22.923C38.1895 22.923 36.7984 23.8797 35.8669 25.5387L34.7177 27.5973C34.2218 28.4812 32.8306 28.0816 32.9153 27.0523C33.3145 21.9543 36.8105 18.4062 39.6895 18.4062C42.5685 18.4062 46.0645 21.9543 46.4637 27.0523C46.5363 28.0938 45.1331 28.4934 44.6371 27.5973Z" fill="white"/>
</g>
<defs>
<clipPath id="clip0_15_17">
<rect width="60" height="62" fill="white"/>
</clipPath>
</defs>
</svg>
