<?xml version="1.0" encoding="utf-8"?>
<!-- Generator: Adobe Illustrator 15.0.0, SVG Export Plug-In . SVG Version: 6.00 Build 0)  -->
<!DOCTYPE svg PUBLIC "-//W3C//DTD SVG 1.1//EN" "http://www.w3.org/Graphics/SVG/1.1/DTD/svg11.dtd">
<svg version="1.1" id="Layer_1" xmlns="http://www.w3.org/2000/svg" xmlns:xlink="http://www.w3.org/1999/xlink" x="0px" y="0px"
	 width="720px" height="404.358px" viewBox="0 0 720 404.358" enable-background="new 0 0 720 404.358" xml:space="preserve">
<g>
	<g>
		<g>
			<g>
				<path fill="#939394" d="M566.733,262.822c-0.39,27.314-5.593,56.525-16.13,86.891c-0.406,1.166-0.837,2.324-1.254,3.486
					l143.254,11.873c0.415-1.162,5.936-14.195,6.342-15.359c17.692-50.989,23.568-99.427,19.08-143.1L566.733,262.822z"/>
				<path fill="#939393" d="M692.956,365.619l-144.319-11.961l0.676-1.871c0.271-0.746,0.543-1.492,0.803-2.242
					c10.287-29.641,15.704-58.82,16.103-86.729l0.005-0.354l0.331-0.122l151.917-56.441l0.067,0.663
					c4.644,45.181-1.784,93.401-19.105,143.321c-0.216,0.617-1.729,4.24-3.333,8.078c-1.385,3.311-2.814,6.736-3.01,7.285
					L692.956,365.619z M550.064,352.741l142.197,11.786c0.432-1.09,1.629-3.955,2.887-6.965c1.526-3.653,3.105-7.432,3.311-8.02
					c17.187-49.532,23.619-97.374,19.121-142.213l-150.336,55.854c-0.441,27.911-5.875,57.079-16.153,86.699
					c-0.263,0.754-0.536,1.506-0.81,2.258L550.064,352.741z"/>
			</g>
		</g>
		<g>
			<g>
				<path fill="#939394" d="M661.048,75.419L543.902,165.87c11.881,21.516,19.359,46.095,21.887,72.927l150.024-48.598
					C708.325,145.455,689.496,106.335,661.048,75.419z"/>
				<path fill="#939393" d="M565.335,239.485l-0.061-0.64c-2.502-26.563-9.845-51.031-21.825-72.727l-0.214-0.387l0.352-0.27
					l117.52-90.74l0.32,0.348c28.5,30.974,47.482,70.755,54.895,115.043l0.073,0.438L565.335,239.485z M544.566,166.008
					c11.826,21.548,19.117,45.8,21.674,72.1l148.991-48.263c-7.402-43.75-26.151-83.055-54.243-113.729L544.566,166.008z"/>
			</g>
		</g>
		<g>
			<path fill="#939394" d="M566.029,15.083L491.5,108.51c15.909,10.806,29.562,23.933,40.679,39.033l117.342-83.714
				C626.624,42.538,598.561,25.939,566.029,15.083z"/>
			<path fill="#939393" d="M532.066,148.258l-0.301-0.409c-11.109-15.089-24.754-28.181-40.555-38.912l-0.46-0.313l0.347-0.436
				l74.754-93.71l0.342,0.115c32.227,10.754,60.379,27.192,83.68,48.858l0.461,0.43L532.066,148.258z M492.25,108.397
				c15.56,10.641,29.026,23.566,40.042,38.432l116.414-83.052c-23.018-21.276-50.77-37.453-82.499-48.091L492.25,108.397z"/>
		</g>
		<g>
			<g>
				<path fill="#939394" d="M475.454,0.52l-41.888,81.963c13.865,3.691,26.814,8.62,38.752,14.702l75.5-87.448
					C525.491,4.027,501.308,0.854,475.454,0.52z"/>
				<path fill="#939393" d="M472.445,97.827l-0.361-0.183c-11.928-6.077-24.932-11.01-38.649-14.663l-0.618-0.164L475.14,0
					l0.32,0.004c25.423,0.328,49.811,3.435,72.484,9.233l0.807,0.206L472.445,97.827z M434.315,82.149
					c13.425,3.617,26.161,8.457,37.876,14.392l74.691-86.511c-22.271-5.622-46.189-8.646-71.115-8.991L434.315,82.149z"/>
			</g>
		</g>
		<g>
			<path fill="#939394" d="M406.476,6.084L384.399,75c8.796,0.44,17.335,1.302,25.601,2.574l43.408-76.661
				C437.819,1.663,422.146,3.421,406.476,6.084z"/>
			<path fill="#939393" d="M410.273,78.138l-0.352-0.054c-8.247-1.269-16.842-2.132-25.549-2.569l-0.67-0.034L406.08,5.629
				l0.309-0.052c15.892-2.701,31.703-4.443,46.994-5.179l0.934-0.045L410.273,78.138z M385.093,74.52
				c8.389,0.442,16.671,1.279,24.633,2.491l42.771-75.537c-14.861,0.753-30.204,2.457-45.627,5.066L385.093,74.52z"/>
		</g>
		<g>
			<g>
				<path fill="#939394" d="M341.285,76.223c5.805-0.59,11.602-1.033,17.384-1.282l23.954-64.113
					c-10.713,2.456-21.403,5.34-32.048,8.614L341.285,76.223z"/>
				<path fill="#939393" d="M340.667,76.804l9.45-57.761l0.306-0.094c10.745-3.305,21.54-6.207,32.084-8.624l0.934-0.214
					l-24.408,65.331l-0.341,0.015c-5.567,0.24-11.244,0.659-17.354,1.28L340.667,76.804z M351.032,19.841l-9.129,55.801
					c5.751-0.574,11.129-0.967,16.402-1.201l23.499-62.896C371.681,13.891,361.335,16.68,351.032,19.841z"/>
			</g>
		</g>
		<g>
			<g>
				<path fill="#939394" d="M299.785,83.236c4.893-1.147,9.792-2.198,14.692-3.12l11.415-52.333
					c-8.605,3.164-17.163,6.591-25.663,10.253L299.785,83.236z"/>
				<path fill="#939393" d="M299.263,83.888l0.454-46.192l0.309-0.133c8.585-3.7,17.228-7.153,25.688-10.264l0.881-0.324
					L314.908,80.56l-0.336,0.063c-4.658,0.877-9.593,1.925-14.669,3.116L299.263,83.888z M300.741,38.377l-0.434,44.208
					c4.744-1.104,9.36-2.082,13.738-2.912l11.142-51.08C317.127,31.574,308.909,34.863,300.741,38.377z"/>
			</g>
		</g>
		<g>
			<g>
				<path fill="#939394" d="M257.34,95.989c5.049-1.847,10.114-3.592,15.196-5.212l2.808-41.233
					c-7.911,3.907-15.753,8.025-23.52,12.34L257.34,95.989z"/>
				<path fill="#939393" d="M256.931,96.688l-5.673-35.079l0.316-0.176c7.799-4.333,15.72-8.489,23.541-12.352l0.804-0.397
					l-2.893,42.477l-0.334,0.106c-4.897,1.562-10.003,3.313-15.175,5.205L256.931,96.688z M252.392,62.16l5.358,33.131
					c4.868-1.772,9.672-3.418,14.297-4.898l2.723-39.988C267.329,54.094,259.807,58.046,252.392,62.16z"/>
			</g>
		</g>
		<g>
			<g>
				<path fill="#939394" d="M218.083,112.782c4.029-1.975,8.077-3.888,12.146-5.724l-2.96-30.697
					c-5.993,3.737-11.926,7.597-17.797,11.567L218.083,112.782z"/>
				<path fill="#939393" d="M217.788,113.501l-8.933-25.778l0.328-0.222c5.923-4.005,11.917-7.9,17.813-11.577l0.707-0.44
					l3.075,31.894l-0.336,0.152c-3.893,1.756-7.974,3.679-12.131,5.716L217.788,113.501z M210.088,88.134l8.292,23.929
					c3.867-1.889,7.664-3.677,11.301-5.322l-2.845-29.501C221.287,80.711,215.658,84.373,210.088,88.134z"/>
			</g>
		</g>
		<g>
			<g>
				<g>
					<path fill="#939394" d="M182.862,132.122c2.903-1.771,5.821-3.509,8.756-5.209l-5.953-22.009
						c-4.202,3.158-8.352,6.39-12.474,9.664L182.862,132.122z"/>
					<path fill="#939393" d="M182.67,132.842l-10.141-18.408l0.342-0.271c4.561-3.623,8.645-6.786,12.484-9.672l0.609-0.458
						l6.256,23.127l-0.343,0.199c-2.821,1.633-5.764,3.384-8.747,5.203L182.67,132.842z M173.854,114.699l9.201,16.702
						c2.711-1.649,5.386-3.24,7.963-4.736l-5.65-20.892C181.808,108.457,178.031,111.385,173.854,114.699z"/>
				</g>
				<g>
					<path fill="#939394" d="M2.751,343.416c-0.774,2.095-1.533,4.193-2.265,6.297C1.219,347.609,1.986,345.513,2.751,343.416z"/>
					<path fill="#939393" d="M0.974,349.883L0,349.545c0.732-2.108,1.492-4.209,2.268-6.307l0.968,0.355l-0.109,0.299
						C2.398,345.887,1.67,347.881,0.974,349.883z"/>
				</g>
				<g>
					<path fill="#939394" d="M157.421,148.839l-6.993-15.236C84.621,191.516,31.627,264.239,2.751,343.416
						C31.112,266.656,88.224,197.685,157.421,148.839z"/>
					<path fill="#939393" d="M3.235,343.596l-0.968-0.355l0-0.002c28.085-77.01,79.201-149.635,147.82-210.022l0.52-0.458
						l7.461,16.255l-0.351,0.247C85.588,200.176,30.725,269.192,3.235,343.596z M150.249,134.448
						c-53.74,47.402-96.677,102.314-126.155,160.96c11.277-20.649,24.738-40.734,40.277-60.071
						c26.336-32.774,57.421-61.932,92.403-86.672L150.249,134.448z"/>
				</g>
			</g>
		</g>
	</g>
	<g>
		<g>
			<polygon fill="#939394" points="686.07,384.545 689.333,376.668 155.069,319.813 135.476,367.159 			"/>
			<path fill="#939393" d="M686.397,385.049l-0.342-0.01l-551.31-17.409l20.008-48.349l0.368,0.039l534.921,56.926L686.397,385.049z
				 M136.205,366.688l549.539,17.352l2.88-6.949l-533.239-56.747L136.205,366.688z"/>
		</g>
	</g>
	<g>
		<g>
			<path fill="#939394" d="M329.65,349.499c-10.419,30.028-43.204,54.365-73.228,54.365c-30.022,0-45.917-24.337-35.496-54.365
				c10.417-30.021,43.201-54.359,73.224-54.359C324.174,295.14,340.068,319.479,329.65,349.499z"/>
			<path fill="#939393" d="M256.422,404.358c-14.105,0-25.675-5.343-32.578-15.047c-7.48-10.513-8.682-24.71-3.385-39.975
				c10.464-30.157,43.522-54.691,73.691-54.691c14.105,0,25.677,5.344,32.581,15.048c7.479,10.513,8.682,24.707,3.387,39.969
				C319.652,379.822,286.592,404.358,256.422,404.358z M294.15,295.634c-29.782,0-62.42,24.236-72.756,54.028
				c-5.19,14.953-4.034,28.832,3.255,39.077c6.713,9.435,17.997,14.631,31.773,14.631c29.783,0,62.422-24.239,72.761-54.033
				c5.188-14.95,4.031-28.826-3.258-39.071C319.212,300.83,307.927,295.634,294.15,295.634z"/>
		</g>
	</g>
</g>
</svg>
