<svg width="60" height="43" viewBox="0 0 60 43" fill="none" xmlns="http://www.w3.org/2000/svg">
<path d="M30 42.5548C28.25 42.5548 26.7708 41.95 25.5625 40.7404C24.3542 39.5308 23.75 38.0501 23.75 36.2983C23.75 34.5464 24.3542 33.0657 25.5625 31.8561C26.7708 30.6465 28.25 30.0417 30 30.0417C31.75 30.0417 33.2292 30.6465 34.4375 31.8561C35.6458 33.0657 36.25 34.5464 36.25 36.2983C36.25 38.0501 35.6458 39.5308 34.4375 40.7404C33.2292 41.95 31.75 42.5548 30 42.5548ZM15.875 28.4151L10.625 23.0345C13.0833 20.5736 15.9692 18.624 19.2825 17.1859C22.5958 15.7477 26.1683 15.0278 30 15.0261C33.8317 15.0245 37.405 15.7544 40.72 17.2159C44.035 18.6774 46.92 20.6586 49.375 23.1596L44.125 28.4151C42.2917 26.5798 40.1667 25.1408 37.75 24.0981C35.3333 23.0553 32.75 22.5339 30 22.5339C27.25 22.5339 24.6667 23.0553 22.25 24.0981C19.8333 25.1408 17.7083 26.5798 15.875 28.4151ZM5.25 17.779L0 12.5235C3.83333 8.60277 8.3125 5.53708 13.4375 3.32645C18.5625 1.11581 24.0833 0.010498 30 0.010498C35.9167 0.010498 41.4375 1.11581 46.5625 3.32645C51.6875 5.53708 56.1667 8.60277 60 12.5235L54.75 17.779C51.5417 14.5673 47.8233 12.0547 43.595 10.2411C39.3667 8.42759 34.835 7.51998 30 7.51831C25.165 7.51664 20.6342 8.42425 16.4075 10.2411C12.1808 12.058 8.46167 14.5706 5.25 17.779Z" fill="white"/>
</svg>
